<?xml version="1.0" encoding="utf-8"?>
<!-- Generator: Adobe Illustrator 22.1.0, SVG Export Plug-In . SVG Version: 6.00 Build 0)  -->
<svg version="1.1" id="Слой_1" xmlns="http://www.w3.org/2000/svg" xmlns:xlink="http://www.w3.org/1999/xlink" x="0px" y="0px"
	 width="25.9px" height="16px" viewBox="0 0 25.9 16" style="enable-background:new 0 0 25.9 16;" xml:space="preserve">
<style type="text/css">
	.st0{fill:#FF5F00;}
	.st1{fill:#EB001B;}
	.st2{fill:#F79E1B;}
</style>
<g id="Logos_1_">
	<g id="Payment-logos" transform="translate(-734.000000, -602.000000)">
		<g id="Logos" transform="translate(288.000000, 322.000000)">
			<g id="Card-slider" transform="translate(432.000000, 0.000000)">
				<g id="logos-_x2F_-card-types-_x2F_-MC-_x2F_-16" transform="translate(0.000000, 280.000000)">
					<g id="MC" transform="translate(14.000000, 0.000000)">
						<rect id="Rectangle" x="9.4" y="1.7" class="st0" width="7" height="12.6"/>
						<path id="Path" class="st1" d="M9.9,8c0-2.5,1.1-4.8,3.1-6.3C9.7-0.9,5-0.5,2.1,2.6s-2.8,7.8,0,10.9s7.5,3.4,10.8,0.9
							C11,12.8,9.9,10.5,9.9,8z"/>
						<path id="Path_1_" class="st2" d="M25.9,8c0,3.1-1.7,5.9-4.5,7.2s-6,1-8.4-0.9C14.9,12.8,16,10.5,16,8s-1.1-4.8-3.1-6.3
							c2.4-1.9,5.7-2.2,8.4-0.9S25.9,4.9,25.9,8L25.9,8z"/>
					</g>
				</g>
			</g>
		</g>
	</g>
</g>
</svg>
