<?xml version="1.0" encoding="utf-8"?>
<!-- Generator: Adobe Illustrator 22.1.0, SVG Export Plug-In . SVG Version: 6.00 Build 0)  -->
<svg version="1.1" id="Слой_1" xmlns="http://www.w3.org/2000/svg" xmlns:xlink="http://www.w3.org/1999/xlink" x="0px" y="0px"
	 width="58.7px" height="16px" viewBox="0 0 58.7 16" style="enable-background:new 0 0 58.7 16;" xml:space="preserve">
<style type="text/css">
	.st0{fill:#0F754E;}
	.st1{fill:url(#path24_1_);}
</style>
<g id="Logos_1_">
	<g id="Payment-logos" transform="translate(-723.000000, -661.000000)">
		<g id="Logos" transform="translate(288.000000, 322.000000)">
			<g id="Card-slider" transform="translate(432.000000, 0.000000)">
				<g id="logos-_x2F_-card-types-_x2F_-Mir-_x2F_-16" transform="translate(0.000000, 336.000000)">
					<g id="Mir" transform="translate(3.000000, 3.000000)">
						<path id="Combined-Shape" class="st0" d="M5.4,0c0.5,0,2.1-0.2,2.7,2.1c0.5,1.4,1.1,4,2.1,7.4l0,0h0.3
							c1.1-3.5,1.9-6.1,2.2-7.4c0.6-2.2,2.4-2.1,3-2.1h5.1v16h-5.3V6.6h-0.3L12.5,16h-4L5.6,6.6H5.3V16H0V0H5.4z M28.5,0v9.4h0.5
							l3.5-7.8C33.1,0,34.7,0,34.7,0l0,0h5.1v16h-5.3V6.6h-0.5l-3.7,7.8C29.7,16,28.1,16,28.1,16H23V0H28.5z M58.2,7.7
							c-0.8,2.1-3.2,3.5-5.8,3.5l0,0h-5.6V16h-5.1V7.7H58.2z"/>

							<linearGradient id="path24_1_" gradientUnits="userSpaceOnUse" x1="41.1367" y1="2.0995" x2="39.537" y2="2.0995" gradientTransform="matrix(10.693 0 0 4.1315 -381.2358 -5.3927)">
							<stop  offset="0" style="stop-color:#1F5CD7"/>
							<stop  offset="1" style="stop-color:#02AEFF"/>
						</linearGradient>
						<path id="path24" class="st1" d="M52.8,0H41.6c0.3,3.5,3.4,6.6,6.6,6.6h10.6C59.2,3.7,57.1,0,52.8,0z"/>
					</g>
				</g>
			</g>
		</g>
	</g>
</g>
</svg>
