<?xml version="1.0" encoding="UTF-8"?>
<svg width="20px" height="21px" viewBox="0 0 20 21" version="1.1" xmlns="http://www.w3.org/2000/svg" xmlns:xlink="http://www.w3.org/1999/xlink">
    <title>000336B3-C5B4-49A7-A4D7-4F53FFF1B14E</title>
    <g id="Card-form" stroke="none" stroke-width="1" fill="none" fill-rule="evenodd">
        <g transform="translate(-308.000000, -716.000000)" fill="#868D95" id="card-form-/-default-/-01-enabled">
            <g transform="translate(288.000000, 654.000000)">
                <g id="Card-form-/-elements-/-header-/-01-enabled" transform="translate(0.000000, 40.000000)">
                    <g id="Enterprise-/-Commerce-/-finance-/-20" transform="translate(20.000000, 22.020711)">
                        <path d="M1.25,17.5 L18.75,17.5 L18.75,18.75 L1.25,18.75 L1.25,17.5 Z M16.875,6.875 C17.220178,6.875 17.5,6.59517797 17.5,6.25 L17.5,4.375 C17.5,4.1118562 17.3349672,3.87696888 17.0875,3.7875 L10.2125,1.2875 C10.0751828,1.23785453 9.92481724,1.23785453 9.7875,1.2875 L2.9125,3.7875 C2.66503285,3.87696888 2.5,4.1118562 2.5,4.375 L2.5,6.25 C2.5,6.59517797 2.77982203,6.875 3.125,6.875 L3.75,6.875 L3.75,15 L2.5,15 L2.5,16.25 L17.5,16.25 L17.5,15 L16.25,15 L16.25,6.875 L16.875,6.875 Z M3.75,4.8125 L10,2.5375 L16.25,4.8125 L16.25,5.625 L3.75,5.625 L3.75,4.8125 Z M11.25,15 L8.75,15 L8.75,6.875 L11.25,6.875 L11.25,15 Z M5,6.875 L7.5,6.875 L7.5,15 L5,15 L5,6.875 Z M15,15 L12.5,15 L12.5,6.875 L15,6.875 L15,15 Z" id="Fill"></path>
                    </g>
                </g>
            </g>
        </g>
    </g>
</svg>
