<?xml version="1.0" encoding="utf-8"?>
<!-- Generator: Adobe Illustrator 22.1.0, SVG Export Plug-In . SVG Version: 6.00 Build 0)  -->
<svg version="1.1" id="Слой_1" xmlns="http://www.w3.org/2000/svg" xmlns:xlink="http://www.w3.org/1999/xlink" x="0px" y="0px"
	 width="25.3px" height="16px" viewBox="0 0 25.3 16" style="enable-background:new 0 0 25.3 16;" xml:space="preserve">
<style type="text/css">
	.st0{fill:#D10429;}
	.st1{fill:#022E64;}
	.st2{fill:#076F74;}
	.st3{fill:#FEFEFE;}
</style>
<g id="Logos_1_">
	<g id="Payment-logos" transform="translate(-734.000000, -714.000000)">
		<g id="Logos" transform="translate(288.000000, 322.000000)">
			<g id="Card-slider" transform="translate(432.000000, 0.000000)">
				<g id="logos-_x2F_-card-types-_x2F_-Unionpay-_x2F_-16" transform="translate(0.000000, 392.000000)">
					<g id="Unionpay" transform="translate(14.000000, 0.000000)">
						<path id="path8" class="st0" d="M5,0h6.3c0.9,0,1.4,0.7,1.2,1.6L9.6,14.4c-0.2,0.9-1.1,1.6-2,1.6H1.3c-0.9,0-1.4-0.7-1.2-1.6
							L3,1.6C3.2,0.7,4.1,0,5,0L5,0z"/>
						<path id="path10" class="st1" d="M10.7,0H18c0.9,0,0.5,0.7,0.3,1.6l-2.9,12.8c-0.2,0.9-0.1,1.6-1,1.6H7
							c-0.9,0-1.4-0.7-1.2-1.6L8.8,1.6C9,0.7,9.8,0,10.7,0L10.7,0z"/>
						<path id="path12" class="st2" d="M17.7,0h6.3c0.9,0,1.4,0.7,1.2,1.6l-2.9,12.8c-0.2,0.9-1.1,1.6-2,1.6h-6.3
							c-0.9,0-1.4-0.7-1.2-1.6l2.9-12.8C16,0.7,16.9,0,17.7,0L17.7,0z"/>
						<path id="path14" class="st3" d="M16.7,12h0.6l0.2-0.6h-0.6L16.7,12L16.7,12z M17.2,10.4L17,11.1c0,0,0.2-0.1,0.3-0.2
							c0.1,0,0.3-0.1,0.3-0.1l0.1-0.5L17.2,10.4L17.2,10.4L17.2,10.4z M17.5,9.5l-0.2,0.7c0,0,0.2-0.1,0.3-0.1c0.1,0,0.3,0,0.3,0
							l0.1-0.5L17.5,9.5L17.5,9.5L17.5,9.5z M18.8,9.5L18,12h0.2l-0.2,0.5h-0.2l-0.1,0.2h-0.7l0.1-0.2h-1.5l0.1-0.5h0.2l0.8-2.6
							l0.2-0.5h0.7l-0.1,0.3c0,0,0.2-0.1,0.4-0.2c0.2-0.1,1.3-0.1,1.3-0.1L19,9.4L18.8,9.5L18.8,9.5L18.8,9.5z"/>
						<path id="path16" class="st3" d="M19.1,8.9h0.8l0,0.3c0,0.1,0,0.1,0.1,0.1h0.2L20,9.8h-0.4c-0.4,0-0.5-0.1-0.5-0.3L19.1,8.9
							L19.1,8.9z M19.2,11.3h-0.8l0.1-0.4h0.9l0.1-0.4h-0.9l0.1-0.5h2.4l-0.1,0.5h-0.8l-0.1,0.4H21l-0.1,0.4H20l-0.2,0.2h0.4
							l0.1,0.6c0,0.1,0,0.1,0,0.1c0,0,0.1,0,0.2,0h0.1l-0.2,0.5h-0.3c0,0-0.1,0-0.2,0c-0.1,0-0.1-0.1-0.2-0.1
							c-0.1,0-0.1-0.1-0.1-0.2l-0.1-0.6l-0.4,0.5c-0.1,0.2-0.3,0.3-0.6,0.3H18l0.1-0.5h0.2c0.1,0,0.1,0,0.2,0c0,0,0.1,0,0.1-0.1
							L19.2,11.3L19.2,11.3z M10.8,10.1h2l-0.1,0.5h-0.8L11.8,11h0.8l-0.2,0.5h-0.8l-0.2,0.7c0,0.1,0.2,0.1,0.3,0.1l0.4-0.1L12,12.7
							H11c-0.1,0-0.1,0-0.2,0c-0.1,0-0.1-0.1-0.1-0.1c0-0.1-0.1-0.1-0.1-0.2l0.3-0.9h-0.5l0.2-0.5H11l0.1-0.4h-0.5L10.8,10.1
							L10.8,10.1L10.8,10.1z M12.2,9.2h0.8l-0.2,0.5h-1.1l-0.1,0.1c-0.1,0.1-0.1,0-0.1,0.1c-0.1,0-0.2,0.1-0.4,0.1h-0.4l0.1-0.5H11
							c0.1,0,0.2,0,0.2,0c0,0,0.1-0.1,0.1-0.2l0.2-0.4h0.8L12.2,9.2L12.2,9.2L12.2,9.2z M13.8,10c0,0,0.2-0.2,0.6-0.3
							c0.1,0,0.6,0,0.6,0l0.1-0.3H14L13.8,10L13.8,10L13.8,10z M14.9,10.2h-1.2l-0.1,0.2h1c0.1,0,0.1,0,0.2,0L14.9,10.2L14.9,10.2
							L14.9,10.2z M13.4,8.9h0.7L14,9.3c0,0,0.2-0.2,0.4-0.2c0.2-0.1,0.5-0.1,0.5-0.1l1.1,0l-0.4,1.3c-0.1,0.2-0.1,0.4-0.2,0.4
							c0,0.1-0.1,0.1-0.2,0.2c-0.1,0.1-0.2,0.1-0.3,0.1c-0.1,0-0.2,0-0.3,0h-1.1l-0.3,1c0,0.1,0,0.2,0,0.2c0,0,0.1,0.1,0.1,0.1
							l0.5,0l-0.2,0.6h-0.5c-0.2,0-0.3,0-0.4,0c-0.1,0-0.2,0-0.2,0c-0.1,0-0.1-0.1-0.1-0.2c0-0.1,0-0.1,0.1-0.3L13.4,8.9L13.4,8.9z"
							/>
						<path id="path18" class="st3" d="M15.4,11l-0.1,0.3c0,0.1-0.1,0.2-0.1,0.2c-0.1,0.1-0.2,0.1-0.4,0.1l-0.4,0l0,0.4
							c0,0.1,0,0.1,0,0.1c0,0,0,0,0.1,0l0.1,0l0.4,0l-0.2,0.5h-0.4c-0.3,0-0.5,0-0.6-0.1c-0.1,0-0.1-0.1-0.1-0.2l0-1.4h0.7l0,0.3
							h0.2c0.1,0,0.1,0,0.1,0c0,0,0,0,0-0.1l0.1-0.2L15.4,11L15.4,11L15.4,11z M5.7,4.1c0,0.1-0.5,2.2-0.5,2.2
							C5.1,6.7,5.1,7,4.8,7.1C4.7,7.3,4.6,7.3,4.4,7.3c-0.3,0-0.5-0.1-0.5-0.4l0-0.1c0,0,0.1-0.6,0.1-0.6c0,0,0.5-1.9,0.5-2.1
							c0,0,0,0,0,0c-0.9,0-1.1,0-1.1,0c0,0,0,0.1,0,0.1L3,6.3l0,0.2L2.8,7.1c0,0.2,0,0.3,0.1,0.4c0.2,0.4,0.8,0.4,1.2,0.4
							c0.4,0,0.9-0.1,1.1-0.3C5.7,7.4,5.9,6.9,6,6.5L6,6.3c0,0,0.5-1.9,0.6-2.2c0,0,0,0,0,0C6,4.1,5.8,4.1,5.7,4.1L5.7,4.1L5.7,4.1z
							 M8.3,7.9c-0.3,0-0.4,0-0.8,0l0,0c0-0.1,0.1-0.3,0.1-0.4l0-0.2C7.7,7,7.8,6.6,7.8,6.5c0-0.1,0-0.2-0.2-0.2
							c-0.1,0-0.2,0-0.2,0.1c0,0.2-0.1,0.6-0.2,0.8C7.1,7.6,7.1,7.7,7.1,7.9l0,0c-0.3,0-0.4,0-0.8,0l0,0c0.1-0.3,0.1-0.5,0.2-0.8
							c0.2-0.7,0.2-1,0.2-1.3l0,0C7,5.7,7.1,5.7,7.5,5.6l0,0L7.5,5.9c0.1,0,0.1-0.1,0.2-0.1c0.2-0.1,0.4-0.1,0.5-0.1
							c0.2,0,0.4,0.1,0.4,0.3c0.1,0.2,0,0.4-0.1,0.8L8.5,7C8.4,7.5,8.4,7.6,8.3,7.9L8.3,7.9L8.3,7.9L8.3,7.9z M9.6,7.9
							c-0.2,0-0.3,0-0.4,0c-0.1,0-0.2,0-0.4,0l0,0l0,0c0.1-0.2,0.1-0.3,0.1-0.3c0-0.1,0-0.1,0.1-0.3C9,7,9,6.9,9.1,6.7
							c0-0.1,0-0.3,0.1-0.4l0,0l0,0c0.2,0,0.3,0,0.4-0.1c0.1,0,0.3,0,0.5-0.1l0,0l0,0L9.9,6.6c0,0.2-0.1,0.3-0.1,0.5
							C9.8,7.4,9.7,7.5,9.7,7.6C9.7,7.7,9.7,7.7,9.6,7.9L9.6,7.9L9.6,7.9L9.6,7.9L9.6,7.9z M11.7,6.8c0,0.1-0.1,0.4-0.2,0.5
							c-0.1,0.1-0.1,0.2-0.2,0.2c0,0-0.2,0-0.2-0.2c0-0.1,0-0.2,0.1-0.4c0.1-0.4,0.2-0.7,0.4-0.7C11.7,6.2,11.7,6.4,11.7,6.8
							L11.7,6.8z M12.5,6.8c0.1-0.5,0-0.7-0.1-0.9c-0.2-0.2-0.5-0.3-0.8-0.3c-0.2,0-0.6,0-1,0.3c-0.2,0.2-0.4,0.5-0.4,0.8
							c-0.1,0.3-0.1,0.8,0.3,1C10.8,8,11,8,11.1,8c0.4,0,0.7-0.1,1-0.4C12.4,7.3,12.5,7,12.5,6.8L12.5,6.8L12.5,6.8z M20.2,8
							c-0.4,0-0.5,0-0.8,0l0,0c0.1-0.4,0.2-0.7,0.3-1.1c0.1-0.5,0.1-0.7,0.2-1l0,0c0.4-0.1,0.5-0.1,0.9-0.1l0,0
							c-0.1,0.3-0.1,0.6-0.2,0.9C20.4,7.3,20.3,7.6,20.2,8L20.2,8L20.2,8L20.2,8z"/>
						<path id="path20" class="st3" d="M19.7,6.9c0,0.1-0.1,0.4-0.2,0.5c-0.1,0.1-0.2,0.2-0.3,0.2c0,0-0.2,0-0.2-0.2
							c0-0.1,0-0.2,0.1-0.4c0.1-0.4,0.2-0.7,0.4-0.7C19.7,6.3,19.8,6.5,19.7,6.9L19.7,6.9L19.7,6.9z M20.4,6.9
							c0.1-0.5-0.3,0-0.4-0.2c-0.1-0.3,0-0.8-0.5-0.9c-0.2-0.1-0.6,0-0.9,0.3c-0.2,0.2-0.4,0.5-0.4,0.8c-0.1,0.3-0.1,0.8,0.3,1
							C18.7,8,18.9,8,19,8c0.5,0,0.9-0.8,1.2-1.1C20.4,6.7,20.4,7,20.4,6.9L20.4,6.9z M14.7,7.9c-0.3,0-0.4,0-0.8,0l0,0
							c0-0.1,0.1-0.3,0.1-0.4l0-0.2c0.1-0.3,0.1-0.7,0.1-0.8c0-0.1,0-0.2-0.2-0.2c-0.1,0-0.2,0-0.2,0.1c0,0.2-0.1,0.6-0.2,0.8
							c-0.1,0.4-0.1,0.5-0.1,0.7l0,0c-0.3,0-0.4,0-0.8,0l0,0c0.1-0.3,0.1-0.5,0.2-0.8c0.2-0.7,0.2-1,0.2-1.3l0,0
							c0.4-0.1,0.5-0.1,0.9-0.1l0,0l-0.1,0.2c0.1,0,0.1-0.1,0.2-0.1c0.2-0.1,0.4-0.1,0.5-0.1c0.2,0,0.4,0.1,0.4,0.3
							c0.1,0.2,0,0.4-0.1,0.8L14.9,7C14.8,7.5,14.7,7.6,14.7,7.9L14.7,7.9L14.7,7.9L14.7,7.9z M17.4,4.1l-0.3,0c-0.7,0-1,0-1.1,0
							c0,0.1,0,0.1,0,0.1s-0.2,1.2-0.2,1.2c0,0-0.6,2.4-0.6,2.6c0.6,0,0.8,0,1,0c0-0.1,0.2-0.8,0.2-0.8c0,0,0.1-0.5,0.1-0.5
							c0,0,0-0.1,0.1-0.1h0.1c0.5,0,1.1,0,1.6-0.3c0.3-0.2,0.5-0.6,0.6-1c0-0.1,0-0.2,0-0.3c0-0.2,0-0.3-0.1-0.4
							C18.4,4.1,18,4.1,17.4,4.1L17.4,4.1z M17.8,5.3c-0.1,0.3-0.2,0.5-0.4,0.6C17.2,6,16.9,6,16.7,6h-0.1l0-0.1
							c0,0,0.3-1.2,0.3-1.1l0-0.1l0,0l0.1,0c0,0,0.5,0,0.6,0C17.7,4.8,17.8,5,17.8,5.3L17.8,5.3z M23.4,5.7L23.4,5.7
							c-0.4,0-0.5,0.1-0.9,0.1l0,0c0,0,0,0,0,0v0c-0.3,0.6-0.3,0.5-0.5,1c0,0,0,0,0-0.1L22,5.7l0,0c-0.4,0.1-0.4,0.1-0.8,0.1l0,0
							c0,0,0,0,0,0l0,0c0,0.2,0,0.2,0.1,0.6c0,0.2,0.1,0.4,0.1,0.6c0,0.3,0.1,0.5,0.1,0.9c-0.3,0.4-0.3,0.6-0.6,1l0,0
							c0.4,0,0.5,0,0.7,0l0.1-0.1C21.8,8.4,23.4,5.7,23.4,5.7L23.4,5.7L23.4,5.7z M10,6c0.2-0.1,0.2-0.4,0.1-0.5
							C9.8,5.4,9.5,5.4,9.3,5.6C9.1,5.7,9.1,5.9,9.3,6.1C9.4,6.2,9.8,6.1,10,6L10,6z"/>
						<path id="path22" class="st3" d="M21.6,8.9l-0.3,0.5c-0.1,0.2-0.3,0.3-0.6,0.3l-0.5,0l0.1-0.5h0.1c0.1,0,0.1,0,0.1,0
							c0,0,0,0,0.1-0.1l0.2-0.3L21.6,8.9L21.6,8.9L21.6,8.9z"/>
					</g>
				</g>
			</g>
		</g>
	</g>
</g>
</svg>
