<?xml version="1.0" encoding="utf-8"?>
<!-- Generator: Adobe Illustrator 22.1.0, SVG Export Plug-In . SVG Version: 6.00 Build 0)  -->
<svg version="1.1" id="Слой_1" xmlns="http://www.w3.org/2000/svg" xmlns:xlink="http://www.w3.org/1999/xlink" x="0px" y="0px"
	 width="49.3px" height="15.9px" viewBox="0 0 49.3 15.9" style="enable-background:new 0 0 49.3 15.9;" xml:space="preserve">
<style type="text/css">
	.st0{fill:#15195A;}
</style>
<g id="Logos_1_">
	<g id="Payment-logos" transform="translate(-729.000000, -773.000000)">
		<g id="Logos" transform="translate(288.000000, 322.000000)">
			<g id="Card-slider" transform="translate(432.000000, 0.000000)">
				<g id="logos-_x2F_-card-types-_x2F_-Visa-_x2F_-16" transform="translate(0.000000, 448.000000)">
					<g id="Visa" transform="translate(9.000000, 3.000000)">
						<path id="Shape" class="st0" d="M24.5,0.2l-3.3,15.5h-4l3.3-15.5H24.5z M41.2,10.2l2.1-5.8l1.2,5.8H41.2z M45.7,15.7h3.7
							L46.1,0.2h-3.4c-0.8,0-1.4,0.4-1.7,1.1l-6,14.3h4.2l0.8-2.3h5.1L45.7,15.7z M35.3,10.7c0-4.1-5.6-4.3-5.6-6.1
							c0-0.6,0.5-1.1,1.7-1.3c0.6-0.1,2.1-0.1,3.9,0.7L36,0.6C35,0.3,33.8,0,32.3,0c-3.9,0-6.7,2.1-6.7,5.1c0,2.2,2,3.5,3.5,4.2
							c1.6,0.8,2.1,1.2,2.1,1.9c0,1-1.2,1.5-2.4,1.5c-2,0-3.2-0.5-4.1-1l-0.7,3.4c0.9,0.4,2.6,0.8,4.4,0.8
							C32.5,16,35.3,13.9,35.3,10.7L35.3,10.7z M18.8,0.2l-6.5,15.5H8.1L4.9,3.4C4.7,2.6,4.5,2.3,4,2C3,1.5,1.4,1,0,0.7l0.1-0.5h6.8
							c0.9,0,1.6,0.6,1.8,1.6l1.7,9l4.1-10.5H18.8z"/>
					</g>
				</g>
			</g>
		</g>
	</g>
</g>
</svg>
